<?xml version="1.0" standalone="no"?>
<!DOCTYPE svg PUBLIC "-//W3C//DTD SVG 1.1//EN" "http://www.w3.org/Graphics/SVG/1.1/DTD/svg11.dtd" >
<svg xmlns="http://www.w3.org/2000/svg">
<metadata>Generated by IcoMoon</metadata>
<defs>
<font id="dmmarket" horiz-adv-x="1024">
<font-face units-per-em="1024" ascent="960" descent="-64" />
<missing-glyph horiz-adv-x="1024" />
<glyph unicode="&#x20;" horiz-adv-x="512" d="" />
<glyph unicode="&#xe900;" glyph-name="ruble" horiz-adv-x="768" d="M0 362.609h114.203v-67.825h-114.203v-133.043h114.203v-225.741h159.092v225.741h172.955v133.043h-172.955v67.825h158.432c62.053 0 115.303 11.74 159.75 35.215 44.892 23.48 79.437 57.394 103.644 101.741 24.202 44.348 36.306 97.826 36.306 160.435 0 58.261-11.884 110-35.645 155.217-23.767 45.218-58.092 80.652-102.984 106.305-44.447 25.652-98.138 38.478-161.071 38.478h-317.524v-465h-114.203v-132.391zM510.284 515.217c-20.684-13.478-47.97-20.217-81.857-20.217h-155.131v331.304h157.772c32.566 0 59.192-8.044 79.876-24.131 20.686-15.652 35.647-36.304 44.889-61.957 9.682-25.218 14.525-52.391 14.525-81.522 0-32.609-4.844-61.304-14.525-86.087-9.242-24.348-24.422-43.478-45.549-57.391z" />
<glyph unicode="&#xe901;" glyph-name="arrow-down" d="M877.981 335.194l-50.052 49.819-291.487-292.024-0.484 833.502-70.619-0.071 0.482-832.184-290.612 290.078-49.819-50.052 376.763-375.833 375.829 376.765z" />
<glyph unicode="&#xe902;" glyph-name="arrow-left" d="M390.221 850.286l51.599-51.841-302.456-301.896 863.271-0.501-0.073-73.144-861.908 0.501 300.438-300.994-51.84-51.599-389.252 390.221 390.221 389.252z" />
<glyph unicode="&#xe903;" glyph-name="arrow-right" d="M612.414 850.286l-51.599-51.841 302.453-301.896-863.269-0.501 0.074-73.144 861.908 0.501-300.442-300.994 51.84-51.599 389.255 390.221-390.221 389.252z" />
<glyph unicode="&#xe904;" glyph-name="arrow-up" d="M125.389 549.729l50.053-49.819 291.486 292.023 0.483-833.5 70.62 0.071-0.48 832.185 290.611-290.079 49.819 50.052-376.761 375.83-375.831-376.763z" />
<glyph unicode="&#xe905;" glyph-name="bag" d="M190.147 838.095c-26.93 0-48.762-21.832-48.762-48.762v-682.667c0-26.931 21.832-48.762 48.762-48.762h682.667c26.931 0 48.762 21.831 48.762 48.762v682.667c0 26.931-21.831 48.762-48.762 48.762h-682.667zM43.861 789.333c0 80.791 65.495 146.286 146.286 146.286h682.667c80.789 0 146.286-65.495 146.286-146.286v-682.667c0-80.794-65.497-146.286-146.286-146.286h-682.667c-80.791 0-146.286 65.492-146.286 146.286v682.667zM531.48 448c-134.653 0-243.81 130.989-243.81 292.571h97.524c0-125.126 81.388-195.048 146.286-195.048s146.286 69.922 146.286 195.048h97.524c0-161.583-109.158-292.571-243.81-292.571z" />
<glyph unicode="&#xe906;" glyph-name="bell" d="M600.905 866.909v-13.493c134.583-40.055 232.729-164.729 232.729-312.326v-325.82h46.546v-93.087h-744.729v93.087h46.546v325.82c0 147.597 98.142 272.271 232.727 312.326v13.493c0 51.413 41.678 93.091 93.091 93.091s93.091-41.678 93.091-93.091zM275.086 215.27h465.455v325.82c0 128.532-104.196 232.728-232.728 232.728s-232.728-104.196-232.728-232.728v-325.82zM600.905 29.092v46.546h-186.182v-46.546c0-51.415 41.678-93.092 93.091-93.092s93.091 41.677 93.091 93.092z" />
<glyph unicode="&#xe907;" glyph-name="bonus" d="M318.903 780.8c33.655 0 66.093-5.213 96.549-14.877 30.456 9.663 62.893 14.877 96.548 14.877s66.094-5.213 96.548-14.877c30.459 9.663 62.894 14.877 96.548 14.877 176.128 0 318.904-142.778 318.904-318.903s-142.776-318.901-318.904-318.901c-33.654 0-66.089 5.212-96.548 14.874-30.454-9.661-62.894-14.874-96.548-14.874s-66.092 5.212-96.548 14.874c-30.456-9.661-62.894-14.874-96.549-14.874-176.125 0-318.903 142.775-318.903 318.901s142.778 318.903 318.903 318.903zM637.804 461.897c0-84.212-32.64-160.8-85.96-217.801 103.25 18.765 181.535 109.139 181.535 217.801s-78.285 199.038-181.535 217.803c53.32-57.002 85.96-133.591 85.96-217.803zM744.94 244.096c103.25 18.765 181.535 109.139 181.535 217.801s-78.285 199.038-181.535 217.803c53.32-57.002 85.965-133.591 85.965-217.803s-32.64-160.8-85.965-217.801z" />
<glyph unicode="&#xe908;" glyph-name="box" d="M5.359 702.39c-0.372-0.706-0.725-1.422-1.060-2.148-3.058-6.611-4.432-13.595-4.288-20.451v-464.521c0-17.628 9.961-33.746 25.73-41.631l464.64-232.32c5.755-3.026 12.221-4.879 19.082-5.248 0.849-0.051 1.698-0.072 2.548-0.072 0.445 0 0.891 0.005 1.336 0.020 7.311 0.205 14.203 2.099 20.296 5.299l464.64 232.32c15.77 7.885 25.728 24.003 25.728 41.631v464.522c0.143 6.856-1.229 13.839-4.291 20.45-0.333 0.726-0.686 1.442-1.060 2.148-4.767 9.080-12.14 15.948-20.736 20.146l-465.101 232.55c-13.102 6.552-28.526 6.552-41.628 0l-465.131-232.564c-8.581-4.199-15.941-11.062-20.705-20.131zM744.75 745.046l128.635-64.319-361.375-180.688-128.638 64.319 361.378 180.687zM640.671 797.086l-361.379-180.688-128.657 64.329 361.375 180.688 128.66-64.329zM257.479 523.226c0.632-0.334 1.272-0.654 1.918-0.959l206.068-103.031v-361.38l-372.364 186.184v361.375l164.378-82.189zM558.556 57.856v361.38l372.362 186.179v-361.375l-372.362-186.184z" />
<glyph unicode="&#xe909;" glyph-name="card" d="M921.62 857.6h-819.198c-56.832 0-101.888-45.568-101.888-102.4l-0.512-614.4c0-56.832 45.568-102.4 102.4-102.4h819.198c56.832 0 102.4 45.568 102.4 102.4v614.4c0 56.832-45.568 102.4-102.4 102.4zM921.62 140.8h-819.198v307.2h819.198v-307.2zM921.62 652.8h-819.198v102.4h819.198v-102.4z" />
<glyph unicode="&#xe90a;" glyph-name="certificate" d="M930.928 936.727c47.383 0 87.040-35.554 92.705-84.982l0.386-8.109v-605.091c0-47.383-35.551-87.040-84.978-92.7l-8.113-0.391h-139.636v-93.091c0-32.782-32.68-54.705-62.431-43.762l-4.929 2.132-72.276 36.138-72.271-36.138c-29.324-14.662-63.544 4.766-67.067 36.273l-0.298 5.357v93.091h-418.907c-44.887 0-82.842 31.907-91.528 77.298l-1.173 7.685-0.39 8.108v605.091c0 47.381 35.554 87.038 84.982 92.701l8.109 0.39h837.816zM698.2 220.346l-10.868-2.178c-7.503-1.266-15.29-2.132-23.357-2.565l-2.090-0.056c-3.384-0.182-6.796-0.275-10.231-0.275l-9.29 0.228c-0.093 0.005-0.186 0.009-0.279 0.014-13.084 0.493-25.395 2.127-36.962 4.738l-0.014-92.532 25.73 12.819c13.107 6.554 28.528 6.554 41.635 0l25.726-12.865v92.672zM95.792 843.714l-2.681-0.077-0.077-602.41 0.079-2.681h418.906l-0.042 39.81c-28.942 32.815-46.504 75.906-46.504 123.099 0 102.825 83.358 186.182 186.182 186.182 102.828 0 186.182-83.356 186.182-186.182 0-47.192-17.557-90.284-46.499-123.099l-0.047-39.81 139.636 0.047 0.079 602.364-0.126 2.681-835.089 0.077zM651.655 494.545c-51.409 0-93.091-41.677-93.091-93.091s41.681-93.091 93.091-93.091v0c1.243 0 2.467 0.014 3.668 0.047 22.602 0.884 43.185 9.849 58.885 24.101 0.093 0.182 0.219 0.293 0.344 0.4l-0.344-0.4c18.762 17.026 30.538 41.612 30.538 68.943 0 51.414-41.677 93.091-93.091 93.091zM325.839 424.727c25.707 0 46.545-20.838 46.545-46.545 0-23.869-17.968-43.543-41.117-46.234l-5.428-0.312h-93.091c-25.706 0-46.545 20.838-46.545 46.545 0 23.869 17.968 43.543 41.117 46.234l5.428 0.312h93.091zM372.384 587.636c25.707 0 46.545-20.839 46.545-46.545 0-23.87-17.968-43.544-41.117-46.232l-5.428-0.313h-139.636c-25.706 0-46.545 20.839-46.545 46.545 0 23.87 17.968 43.544 41.117 46.232l5.428 0.313h139.636zM791.291 750.545c25.707 0 46.545-20.839 46.545-46.545 0-23.87-17.967-43.544-41.114-46.232l-5.432-0.313h-558.544c-25.706 0-46.545 20.839-46.545 46.545 0 23.87 17.968 43.544 41.117 46.232l5.428 0.313h558.544z" />
<glyph unicode="&#xe90b;" glyph-name="check" d="M1000.243 732.953l-658.751-592.877-341.492 339.138 53.449 53.821 290.607-288.602 605.446 544.901 50.741-56.38z" />
<glyph unicode="&#xe90c;" glyph-name="close" d="M116.822 939.957c-26.725 26.725-70.054 26.725-96.779 0s-26.725-70.054 0-96.779l395.18-395.178-395.176-395.177c-26.725-26.726-26.725-70.057 0-96.778 26.725-26.726 70.054-26.726 96.779 0l395.174 395.177 395.177-395.177c26.726-26.726 70.057-26.726 96.778 0 26.726 26.721 26.726 70.052 0 96.778l-395.177 395.177 395.182 395.178c26.726 26.725 26.726 70.054 0 96.779s-70.052 26.725-96.778 0l-395.182-395.18-395.178 395.18z" />
<glyph unicode="&#xe90d;" glyph-name="diamond" d="M197.42 910.384c1.134 0.445 2.289 0.844 3.46 1.195 4.57 1.373 9.203 1.971 13.754 1.864h590.328c4.534 0.106 9.155-0.487 13.708-1.851 1.187-0.354 2.355-0.757 3.505-1.208 9.812-3.84 17.524-10.834 22.374-19.4l168.755-293.91c3.491-5.831 5.679-12.532 6.167-19.7 0.047-0.695 0.079-1.39 0.093-2.086 0.014-0.663 0.014-1.327 0-1.989-0.247-10.641-4.236-20.356-10.71-27.875l-464.989-546.914c-1.187-1.424-2.458-2.769-3.803-4.026-2.285-2.132-4.785-4.017-7.461-5.623-6.735-4.045-14.573-6.316-22.803-6.316-13.428 0-25.809 6.046-34.067 15.96l-464.989 546.916c-6.477 7.522-10.471 17.243-10.711 27.891-0.023 1.016-0.012 2.033 0.034 3.049 0.34 7.55 2.57 14.608 6.226 20.713l168.75 293.907c4.854 8.567 12.566 15.563 22.378 19.403zM428.392 824.785h-152.211l53.657-152.576 98.553 152.576zM400.792 618.658h218.011l-109.005 168.757-109.007-168.757zM689.757 672.21l-98.555 152.576h152.213l-53.658-152.576zM815.718 763.15l82.958-144.492h-133.772l50.814 144.492zM509.798 160.489l129.946 369.513h-259.894l129.949-369.513zM203.878 763.15l50.814-144.492h-133.776l82.962 144.492zM285.87 530.001h-145.649l248.394-292.159-102.745 292.159zM879.374 530.001h-145.65l-102.744-292.159 248.394 292.159z" />
<glyph unicode="&#xe90e;" glyph-name="down" d="M100.566 789.333l-100.566-100.566 502.83-502.833 502.832 502.831-100.565 100.567-402.265-402.264-402.266 402.266z" />
<glyph unicode="&#xe90f;" glyph-name="facebook" d="M768.026 959.787l-132.791 0.213c-149.183 0-245.592-98.912-245.592-252.005v-116.191h-133.513c-11.537 0-20.88-9.353-20.88-20.89v-168.348c0-11.537 9.354-20.879 20.88-20.879h133.513v-424.796c0-11.539 9.342-20.877 20.879-20.877h174.196c11.537 0 20.879 9.35 20.879 20.877v424.796h156.111c11.533 0 20.877 9.343 20.877 20.879l0.064 168.348c0 5.54-2.208 10.845-6.112 14.765-3.91 3.921-9.242 6.125-14.778 6.125h-156.162v98.497c0 47.341 11.282 71.375 72.949 71.375l89.453 0.032c11.526 0 20.87 9.353 20.87 20.879v156.321c0 11.516-9.331 20.858-20.845 20.88z" />
<glyph unicode="&#xe910;" glyph-name="filter" d="M0 163.553v-113.777h341.334v113.777h-341.334zM0 846.222v-113.778h568.888v113.778h-568.888zM568.888-64v113.777h455.112v113.777h-455.112v113.782h-113.777v-341.335h113.777zM227.555 618.666v-113.778h-227.555v-113.777h227.555v-113.777h113.778v341.331h-113.778zM1024 391.112v113.777h-568.889v-113.777h568.889zM682.665 618.666h113.782v113.778h227.553v113.778h-227.553v113.778h-113.782v-341.334z" />
<glyph unicode="&#xe911;" glyph-name="gift" d="M921.6 729.6h-111.616c5.632 15.872 9.216 33.28 9.216 51.2 0 84.992-68.608 153.6-153.6 153.6-53.76 0-100.352-27.648-128-69.12l-25.6-34.304-25.6 34.816c-27.648 40.96-74.24 68.608-128 68.608-84.992 0-153.6-68.608-153.6-153.6 0-17.92 3.584-35.328 9.216-51.2h-111.616c-56.832 0-101.888-45.568-101.888-102.4l-0.512-563.2c0-56.832 45.568-102.4 102.4-102.4h819.2c56.832 0 102.4 45.568 102.4 102.4v563.2c0 56.832-45.568 102.4-102.4 102.4zM665.6 832c28.16 0 51.2-23.040 51.2-51.2s-23.040-51.2-51.2-51.2c-28.16 0-51.2 23.040-51.2 51.2s23.040 51.2 51.2 51.2zM358.4 832c28.16 0 51.2-23.040 51.2-51.2s-23.040-51.2-51.2-51.2c-28.16 0-51.2 23.040-51.2 51.2s23.040 51.2 51.2 51.2zM921.6 64h-819.2v102.4h819.2v-102.4zM921.6 320h-819.2v307.2h260.096l-106.496-144.896 82.944-59.904 173.056 235.52 173.056-235.52 82.944 59.904-106.496 144.896h260.096v-307.2z" />
<glyph unicode="&#xe912;" glyph-name="happy" d="M512.020 960c282.772 0 512-229.23 512-512 0-282.772-229.228-512-512-512-282.768 0-511.998 229.228-511.998 512 0 282.77 229.23 512 511.998 512zM512.020 866.909c-231.355 0-418.907-187.552-418.907-418.909s187.552-418.908 418.907-418.908c231.357 0 418.913 187.551 418.913 418.908s-187.556 418.909-418.913 418.909zM695.747 326.723c22.994-11.494 32.312-39.455 20.818-62.449-8.269-16.527-23.951-38.671-48.527-60.518-40.858-36.316-93.071-58.301-156.017-58.301-62.94 0-115.155 21.985-156.012 58.301-24.579 21.847-40.261 43.991-48.526 60.518-11.496 22.994-2.177 50.954 20.816 62.449 21.35 10.675 46.982 3.4 59.74-16.102l2.707-4.716c3.372-6.743 12.416-19.507 27.11-32.568 24.598-21.868 55.291-34.79 94.166-34.79 38.881 0 69.571 12.923 94.172 34.79 12.59 11.192 21.038 22.175 25.313 29.327l1.792 3.241c11.5 22.994 39.455 32.312 62.449 20.818zM674.934 634.182c23.869 0 43.54-17.968 46.228-41.117l0.317-5.428v-23.272c0-25.706-20.844-46.545-46.546-46.545-23.875 0-43.546 17.968-46.234 41.117l-0.312 5.428v23.272c0 25.706 20.838 46.545 46.546 46.545zM349.113 634.182c23.87 0 43.544-17.968 46.233-41.117l0.313-5.428v-23.272c0-25.706-20.839-46.545-46.546-46.545-23.87 0-43.544 17.968-46.232 41.117l-0.313 5.428v23.272c0 25.706 20.839 46.545 46.545 46.545z" />
<glyph unicode="&#xe913;" glyph-name="heart" d="M529.374 748.535l49.668 49.672c100.42 100.417 263.228 100.417 363.644 0 100.42-100.417 100.42-263.226 0-363.642l-413.231-413.231-414.544 414.379c-100.417 100.416-100.417 263.225 0 363.642s263.226 100.417 363.643 0l50.82-50.819zM528.226 154.799l230.775 230.775 67.827 65.502 0.068-0.068 49.673 49.672c63.902 63.902 63.902 167.507 0 231.409s-167.505 63.902-231.407 0l-115.742-115.738-0.337 0.338-0.051-0.050-116.596 116.597c-63.902 63.902-167.507 63.902-231.409 0s-63.902-167.507 0-231.409l118.723-118.724 0.084 0.085 228.392-228.39z" />
<glyph unicode="&#xe914;" glyph-name="heart-fill" d="M511.087 761.602l-53.025 53.028c-104.785 104.783-274.672 104.783-379.455 0s-104.783-274.67 0-379.452l432.569-432.395 431.197 431.197c104.782 104.783 104.782 274.67 0 379.453s-274.672 104.783-379.454 0l-51.832-51.831z" />
<glyph unicode="&#xe915;" glyph-name="history" d="M426.667 618.667h256c11.315 0 22.17 4.495 30.17 12.497s12.497 18.854 12.497 30.17c0 11.316-4.497 22.168-12.497 30.17s-18.854 12.497-30.17 12.497h-256c-11.316 0-22.168-4.495-30.17-12.497s-12.497-18.854-12.497-30.17c0-11.316 4.495-22.168 12.497-30.17s18.854-12.497 30.17-12.497v0zM341.333 448h341.333c11.315 0 22.17 4.497 30.17 12.497s12.497 18.854 12.497 30.17c0 11.315-4.497 22.17-12.497 30.17s-18.854 12.497-30.17 12.497h-341.333c-11.316 0-22.168-4.497-30.17-12.497s-12.497-18.854-12.497-30.17c0-11.315 4.495-22.17 12.497-30.17s18.854-12.497 30.17-12.497zM341.333 277.333h341.333c11.315 0 22.17 4.497 30.17 12.497s12.497 18.854 12.497 30.17c0 11.315-4.497 22.17-12.497 30.17s-18.854 12.497-30.17 12.497h-341.333c-11.316 0-22.168-4.497-30.17-12.497s-12.497-18.854-12.497-30.17c0-11.315 4.495-22.17 12.497-30.17s18.854-12.497 30.17-12.497zM853.333 874.667h-682.667c-11.316 0-22.168-4.495-30.17-12.497s-12.497-18.854-12.497-30.17v-768c0-7.923 2.206-15.693 6.372-22.43 4.166-6.741 10.126-12.19 17.213-15.731 7.087-3.546 15.021-5.043 22.913-4.335 7.892 0.713 15.429 3.61 21.768 8.363l88.32 66.133 87.893-66.133c7.386-5.538 16.368-8.533 25.6-8.533s18.214 2.995 25.6 8.533l88.32 66.133 88.32-66.133c7.386-5.538 16.367-8.533 25.6-8.533s18.214 2.995 25.6 8.533l87.893 66.133 88.32-66.133c6.37-4.749 13.939-7.62 21.854-8.299s15.863 0.866 22.946 4.459c7.036 3.546 12.954 8.969 17.097 15.671s6.345 14.421 6.37 22.302v768c0 11.316-4.497 22.168-12.497 30.17s-18.854 12.497-30.17 12.497v0zM810.667 149.333l-45.653 34.133c-7.386 5.538-16.367 8.533-25.6 8.533s-18.214-2.995-25.6-8.533l-87.893-66.133-88.32 66.133c-7.386 5.538-16.367 8.533-25.6 8.533s-18.214-2.995-25.6-8.533l-88.32-66.133-87.893 66.133c-7.386 5.538-16.368 8.533-25.6 8.533s-18.214-2.995-25.6-8.533l-45.653-34.133v640h597.333v-640z" />
<glyph unicode="&#xe916;" glyph-name="instagram" d="M746.809 960h-469.622c-152.843 0-277.187-124.344-277.187-277.187v-469.633c0-152.832 124.344-277.18 277.187-277.18h469.633c152.832 0 277.18 124.348 277.18 277.18v469.633c0 152.843-124.348 277.187-277.191 277.187v0zM511.999 168.010c-154.39 0-279.992 125.599-279.992 279.991 0 154.39 125.602 279.992 279.992 279.992 154.392 0 279.991-125.602 279.991-279.992 0-154.392-125.599-279.991-279.991-279.991v0zM798.686 661.961c-45.625 0-82.734 37.109-82.734 82.734s37.109 82.742 82.734 82.742c45.625 0 82.745-37.117 82.745-82.742s-37.12-82.734-82.745-82.734zM512 618.667c-94.102 0-170.667-76.559-170.667-170.667 0-94.1 76.565-170.667 170.667-170.667 94.106 0 170.667 76.567 170.667 170.667 0 94.108-76.561 170.667-170.667 170.667v0z" />
<glyph unicode="&#xe917;" glyph-name="left" d="M782.028 816.525l-92.83 92.831-464.154-464.151 464.152-464.148 92.83 92.83-371.321 371.317 371.322 371.322z" />
<glyph unicode="&#xe918;" glyph-name="location" d="M871.306 601.6c0-268.8-359.782-665.6-359.782-665.6s-359.784 396.8-359.784 665.6c0 197.632 161.389 358.4 359.784 358.4s359.782-160.768 359.782-358.4zM511.524 434.166c76.424 0 138.378 61.952 138.378 138.377s-61.954 138.378-138.378 138.378c-76.424 0-138.379-61.954-138.379-138.378s61.955-138.377 138.379-138.377z" />
<glyph unicode="&#xe919;" glyph-name="logout" d="M85.333 682.667c0 106.039 85.961 192 192 192h234.667c94.255 0 170.667-76.41 170.667-170.667v-42.667c0-23.564-19.102-42.667-42.667-42.667s-42.667 19.103-42.667 42.667v42.667c0 47.128-38.204 85.333-85.333 85.333h-234.667c-58.91 0-106.667-47.756-106.667-106.667v-469.333c0-58.91 47.756-106.667 106.667-106.667h234.667c47.13 0 85.333 38.204 85.333 85.333v42.667c0 23.565 19.102 42.667 42.667 42.667s42.667-19.102 42.667-42.667v-42.667c0-94.255-76.412-170.667-170.667-170.667h-234.667c-106.039 0-192 85.961-192 192v469.333zM780.497 606.17c16.661 16.662 43.678 16.662 60.339 0l128-128c16.661-16.661 16.661-43.678 0-60.339l-128-128c-16.661-16.661-43.678-16.661-60.339 0s-16.661 43.678 0 60.339l55.164 55.164h-366.327c-23.565 0-42.667 19.102-42.667 42.667s19.102 42.667 42.667 42.667h366.327l-55.164 55.163c-16.661 16.663-16.661 43.677 0 60.34z" />
<glyph unicode="&#xe91a;" glyph-name="mail" d="M358.249 832h307.5c47.023 0 84.945 0.001 115.639-2.548 31.612-2.625 59.354-8.172 84.954-21.47 38.963-20.24 70.733-52.010 90.974-90.974 13.295-25.6 18.846-53.343 21.47-84.951 2.547-30.694 2.547-68.62 2.547-115.641v-136.832c0-47.023 0-84.945-2.547-115.639-2.624-31.612-8.175-59.354-21.47-84.954-20.241-38.963-52.011-70.733-90.974-90.974-25.6-13.295-53.342-18.846-84.954-21.47-30.694-2.547-68.617-2.547-115.639-2.547h-307.499c-47.021 0-84.946 0-115.641 2.547-31.608 2.624-59.351 8.175-84.951 21.47-38.964 20.241-70.734 52.011-90.974 90.974-13.298 25.6-18.845 53.342-21.47 84.954-2.549 30.694-2.548 68.617-2.548 115.639v136.832c0 47.022-0.001 84.947 2.548 115.641 2.625 31.608 8.172 59.351 21.47 84.951 20.24 38.964 52.010 70.734 90.974 90.974 25.6 13.298 53.343 18.845 84.951 21.47 30.694 2.549 68.619 2.548 115.639 2.548zM224.117 741.099c36.209-8.496 69.821-26.5 97.17-52.547l125.39-119.418c17.34-16.515 28.518-27.118 37.687-34.528 8.755-7.079 12.877-8.867 15.155-9.567 8.137-2.487 16.823-2.487 24.96 0 2.278 0.7 6.4 2.487 15.155 9.567 9.169 7.41 20.348 18.014 37.687 34.528l125.389 119.418c27.349 26.047 60.962 44.051 97.173 52.547-7.172 1.377-15.552 2.481-25.557 3.313-26.748 2.221-61.12 2.255-110.434 2.255h-303.787c-49.313 0-83.688-0.034-110.435-2.255-10.006-0.831-18.385-1.936-25.555-3.313zM887.919 661.333h-39.919c-32.183 0-63.134-12.38-86.438-34.575l-126.562-120.54c-15.829-15.074-29.525-28.117-41.715-37.973-12.902-10.432-26.842-19.605-43.849-24.806-24.401-7.462-50.47-7.462-74.871 0-17.007 5.201-30.946 14.374-43.849 24.806-12.189 9.856-25.885 22.899-41.715 37.978l-126.564 120.535c-23.305 22.195-54.254 34.575-86.437 34.575h-39.918c-2.595-9.243-4.539-20.839-5.827-36.338-2.221-26.747-2.255-61.122-2.255-110.435v-133.12c0-49.314 0.034-83.686 2.255-110.434 2.179-26.236 6.239-41.289 12.156-52.676 12.144-23.381 31.206-42.441 54.584-54.583 11.39-5.918 26.441-9.98 52.676-12.156 26.747-2.223 61.122-2.257 110.435-2.257h303.787c49.314 0 83.686 0.034 110.434 2.257 26.236 2.176 41.289 6.238 52.676 12.156 23.381 12.143 42.441 31.202 54.583 54.583 5.918 11.388 9.98 26.441 12.156 52.676 2.223 26.748 2.257 61.12 2.257 110.434v133.12c0 49.313-0.034 83.688-2.257 110.435-1.284 15.499-3.23 27.095-5.824 36.338z" />
<glyph unicode="&#xe91b;" glyph-name="menu" d="M0 780.8c0 28.277 22.923 51.2 51.2 51.2h921.6c28.278 0 51.2-22.923 51.2-51.2s-22.922-51.2-51.2-51.2h-921.6c-28.277 0-51.2 22.923-51.2 51.2zM0 471.95c0 28.277 22.923 51.2 51.2 51.2h921.6c28.278 0 51.2-22.923 51.2-51.2s-22.922-51.2-51.2-51.2h-921.6c-28.277 0-51.2 22.923-51.2 51.2zM51.2 214.298c-28.277 0-51.2-22.922-51.2-51.2 0-28.273 22.923-51.2 51.2-51.2h921.6c28.278 0 51.2 22.927 51.2 51.2 0 28.278-22.922 51.2-51.2 51.2h-921.6z" />
<glyph unicode="&#xe91c;" glyph-name="minus" d="M0 460.8c0 35.346 28.654 64 64 64h896c35.348 0 64-28.654 64-64s-28.652-64-64-64h-896c-35.346 0-64 28.654-64 64z" />
<glyph unicode="&#xe91d;" glyph-name="phone" d="M90.921 935.619h189.63c29.799 0 54.18-24.381 54.18-54.18 0-67.725 10.836-132.741 30.882-193.422 5.96-18.963 1.625-40.093-13.545-55.263l-87.771-87.23c78.019-153.327 204.258-279.025 357.588-357.586l87.23 87.771c10.835 10.294 24.381 15.711 38.468 15.711 5.417 0 11.376-0.541 16.794-2.711 60.684-20.046 126.24-30.881 193.424-30.881 29.798 0 54.179-24.381 54.179-54.179v-189.089c0-29.798-24.381-54.179-54.179-54.179-508.751 0-921.059 412.311-921.059 921.058 0 29.799 24.381 54.18 54.18 54.18z" />
<glyph unicode="&#xe91e;" glyph-name="plus" d="M512 960c-35.346 0-64-28.654-64-64v-384h-384c-35.346 0-64-28.654-64-64 0-35.348 28.654-64 64-64h384v-384c0-35.348 28.654-64 64-64 35.348 0 64 28.652 64 64v384h384c35.348 0 64 28.652 64 64 0 35.346-28.652 64-64 64h-384v384c0 35.346-28.652 64-64 64z" />
<glyph unicode="&#xe91f;" glyph-name="quality" d="M495.732 960l-418.909-186.182v-279.273c0-258.329 178.734-499.896 418.909-558.545 240.176 58.65 418.91 300.216 418.91 558.545v279.273l-418.91 186.182zM821.55 494.545c0-210.385-138.706-404.479-325.818-462.197-187.112 57.718-325.818 251.812-325.818 462.197v218.764l325.818 144.756 325.818-144.756v-218.764zM282.088 467.084l-65.629-65.63 186.182-186.184 372.363 372.366-65.628 66.095-306.735-306.733-120.553 120.086z" />
<glyph unicode="&#xe920;" glyph-name="question" d="M464.983 443.438c-8.16-19.917-12.24-46.679-12.24-80.276h92.158l1.444 21.96c2.637 23.516 13.076 44.037 31.319 61.558l29.158 27.721c22.799 22.080 38.758 42.12 47.882 60.12 9.119 18.24 13.676 37.56 13.676 57.96 0 44.88-14.039 79.56-42.117 104.040-28.078 24.72-67.558 37.080-118.44 37.080-50.4 0-90.24-12.96-119.52-38.88-29.040-25.92-43.8-61.8-44.28-107.64h104.4c0.48 19.2 6 34.2 16.56 45 10.8 11.040 25.080 16.56 42.84 16.56 37.442 0 56.161-20.28 56.161-60.84 0-13.44-3.599-26.28-10.803-38.52-7.199-12-21.719-27.72-43.557-47.16-21.6-19.2-36.48-38.76-44.64-58.682zM458.503 292.239c-10.8-10.322-16.2-23.521-16.2-39.598 0-15.841 5.28-28.923 15.84-39.24 10.8-10.322 24.96-15.483 42.48-15.483s31.56 5.161 42.118 15.483c10.803 10.317 16.2 23.398 16.2 39.24 0 16.077-5.519 29.276-16.558 39.598-10.798 10.563-24.719 15.841-41.759 15.841s-31.080-5.279-42.12-15.841zM0.023 448c0 282.624 229.376 512 511.998 512 282.624 0 512-229.376 512-512s-229.376-512-512-512c-282.622 0-511.998 229.376-511.998 512zM102.423 448c0-225.792 183.808-409.6 409.598-409.6 225.792 0 409.6 183.808 409.6 409.6s-183.808 409.6-409.6 409.6c-225.79 0-409.598-183.808-409.598-409.6z" />
<glyph unicode="&#xe921;" glyph-name="right" d="M225.044 73.878l92.831-92.83 464.154 464.151-464.152 464.152-92.83-92.83 371.321-371.321-371.322-371.323z" />
<glyph unicode="&#xe922;" glyph-name="sale" d="M7.095 885.871c0 27.475 22.273 49.748 49.748 49.748h447.735c13.195 0 25.849-5.241 35.177-14.571l402.295-402.297c54.009-54.33 54.009-142.075 0-196.406l-0.102-0.107-321.004-321.004c-26.127-26.146-61.596-40.853-98.553-40.853-36.972 0-72.423 14.697-98.551 40.853l-402.155 401.705c-9.342 9.333-14.591 21.992-14.591 35.196v447.735zM106.592 836.122v-377.364l387.64-387.21c7.465-7.47 17.598-11.669 28.16-11.669 10.567 0 20.695 4.198 28.155 11.669l320.985 320.985c15.375 15.511 15.375 40.516 0 56.027l-387.56 387.561h-377.38zM318.022 562.507c34.343 0 62.185 27.842 62.185 62.185s-27.842 62.186-62.185 62.186c-34.344 0-62.186-27.842-62.186-62.186s27.842-62.185 62.186-62.185z" />
<glyph unicode="&#xe923;" glyph-name="search" d="M775.823 260.654c132.403 170.051 120.448 416.068-35.876 572.391-169.272 169.273-443.72 169.273-612.993 0s-169.273-443.72 0-612.993c156.323-156.324 402.34-168.279 572.391-35.876 0.732-0.829 1.495-1.644 2.289-2.437l229.873-229.873c21.161-21.156 55.465-21.156 76.626 0 21.156 21.161 21.156 55.465 0 76.626l-229.873 229.873c-0.794 0.794-1.608 1.556-2.437 2.289zM663.322 756.421c126.956-126.954 126.956-332.787 0-459.743s-332.788-126.956-459.743 0c-126.955 126.956-126.955 332.788 0 459.743s332.787 126.955 459.743 0z" />
<glyph unicode="&#xe924;" glyph-name="share" d="M849.442 610.54c89.766 0 162.538 72.772 162.538 162.54s-72.772 162.54-162.538 162.54c-89.771 0-162.543-72.771-162.543-162.54 0-6.799 0.419-13.501 1.229-20.081l-376.011-188.005c-29.233 28.201-69.009 45.547-112.836 45.547-89.768 0-162.54-72.771-162.54-162.54 0-89.771 72.771-162.538 162.54-162.538 43.827 0 83.602 17.345 112.836 45.544l376.011-188.006c-0.809-6.578-1.229-13.278-1.229-20.080 0-89.766 72.772-162.538 162.543-162.538 89.766 0 162.538 72.772 162.538 162.538 0 89.771-72.772 162.543-162.538 162.543-43.827 0-83.602-17.349-112.84-45.548l-376.009 188.006c0.81 6.578 1.228 13.283 1.228 20.080 0 6.799-0.417 13.501-1.228 20.081l376.009 188.006c29.238-28.201 69.013-45.547 112.84-45.547z" />
<glyph unicode="&#xe925;" glyph-name="shop" d="M139.659-64c-23.87 0-43.544 17.966-46.233 41.119l-0.313 5.427 0.016 481.222c-9.509 3.362-18.833 7.432-27.891 12.211l-10.070 5.671-32.547 19.528c-14.020 8.412-22.598 23.563-22.598 39.912v186.182c0 25.706 20.839 46.545 46.545 46.545l46.545 0.047v139.59c0 23.87 17.969 43.544 41.118 46.232l5.428 0.313h744.729c23.869 0 43.54-17.968 46.228-41.117l0.317-5.428v-139.59l46.546-0.047c23.869 0 43.54-17.969 46.228-41.118l0.312-5.428v-186.182c0-16.35-8.576-31.5-22.595-39.912l-32.548-19.528c-12.15-7.291-24.858-13.246-37.914-17.866l-0.031-481.239c0-23.869-17.971-43.546-41.119-46.234l-5.427-0.312h-744.729zM744.75 486.819l-8.602-5.168c-63.012-37.808-140.948-39.703-205.455-5.672l-10.071 5.671-8.602 5.169-8.597-5.168c-63.015-37.808-140.953-39.703-205.459-5.672l-10.070 5.671-8.6 5.169-8.6-5.168c-26.253-15.753-55.098-25.27-84.482-28.553l-0.010-424.006h162.909v232.724c0 23.875 17.969 43.546 41.118 46.234l5.428 0.312h232.729c25.702 0 46.546-20.838 46.546-46.546v-232.724h162.908l0.036 424.001c-29.399 3.278-58.26 12.797-84.526 28.558l-8.602 5.169zM581.842 215.27h-139.637v-186.179h139.637v186.179zM883.594 680.774l-790.481-0.047v-113.291l9.95-5.961c34.394-20.637 76.789-22.012 112.25-4.127l7.487 4.127 32.547 19.528c14.74 8.844 33.155 8.844 47.895 0l32.547-19.528c36.851-22.111 82.887-22.111 119.738 0l32.547 19.528c14.74 8.844 33.156 8.844 47.897 0l32.548-19.528c36.849-22.111 82.883-22.111 119.736 0l32.548 19.528c14.74 8.844 33.152 8.844 47.892 0l32.548-19.528c36.849-22.111 82.888-22.111 119.736 0l9.953 6.007v113.245l-45.742 0.007c-0.266-0.005-0.538-0.007-0.804-0.007l-0.794 0.047zM837.842 866.909h-651.637v-93.044h651.637v93.044z" />
<glyph unicode="&#xe926;" glyph-name="show" d="M512 704c-137.933 0-257.722-98.585-332.596-247.275-1.225-2.436-2.132-4.237-2.897-5.807-0.674-1.382-1.093-2.291-1.367-2.918 0.273-0.627 0.692-1.536 1.367-2.918 0.765-1.57 1.673-3.371 2.897-5.807 74.874-148.689 194.663-247.275 332.596-247.275s257.724 98.586 332.595 247.275c1.225 2.436 2.133 4.237 2.897 5.807 0.674 1.382 1.092 2.291 1.37 2.918-0.277 0.627-0.695 1.536-1.37 2.918-0.764 1.57-1.673 3.371-2.897 5.807-74.871 148.689-194.662 247.275-332.595 247.275zM103.188 495.104c82.76 164.351 226.189 294.229 408.812 294.229s326.050-129.879 408.811-294.229c0.299-0.597 0.61-1.203 0.926-1.83 3.895-7.684 8.926-17.604 11.179-29.833 1.788-9.728 1.788-21.154 0-30.882-2.253-12.228-7.283-22.153-11.179-29.833-0.316-0.627-0.627-1.233-0.926-1.83-82.761-164.352-226.189-294.229-408.811-294.229s-326.052 129.877-408.812 294.229c-0.3 0.597-0.608 1.203-0.925 1.83-3.896 7.684-8.927 17.604-11.177 29.833-1.789 9.728-1.789 21.154 0 30.882 2.25 12.228 7.281 22.148 11.177 29.833 0.317 0.627 0.625 1.233 0.925 1.83zM512 533.333c-47.13 0-85.333-38.204-85.333-85.333s38.204-85.333 85.333-85.333c47.13 0 85.333 38.204 85.333 85.333s-38.204 85.333-85.333 85.333zM341.333 448c0 94.257 76.41 170.667 170.667 170.667 94.255 0 170.667-76.41 170.667-170.667 0-94.255-76.412-170.667-170.667-170.667-94.257 0-170.667 76.412-170.667 170.667z" />
<glyph unicode="&#xe927;" glyph-name="star" d="M426.499 832.596c32.31 75.028 138.688 75.028 171 0l73.821-171.423c6.74-15.648 21.49-26.363 38.451-27.937l185.847-17.237c81.338-7.544 114.213-108.716 52.838-162.63l-140.218-123.181c-12.8-11.245-18.432-28.584-14.685-45.205l41.034-182.072c17.962-79.69-68.101-142.22-138.342-100.51l-160.484 95.288c-14.648 8.699-32.88 8.699-47.528 0l-160.482-95.288c-70.24-41.709-156.302 20.82-138.341 100.51l41.036 182.072c3.746 16.621-1.887 33.96-14.687 45.205l-140.22 123.181c-61.371 53.914-28.499 155.086 52.842 162.63l185.845 17.237c16.964 1.573 31.713 12.289 38.451 27.937l73.822 171.423zM585.821 624.353l-73.821 171.423-73.823-171.423c-20.216-46.942-64.462-79.090-115.354-83.809l-185.845-17.237 140.22-123.183c38.398-33.731 55.299-85.746 44.061-135.606l-41.036-182.077 160.483 95.293c43.949 26.098 98.64 26.098 142.588 0l160.479-95.293-41.034 182.077c-11.236 49.859 5.665 101.874 44.060 135.606l140.223 123.183-185.847 17.237c-50.893 4.72-95.139 36.867-115.354 83.809z" />
<glyph unicode="&#xe928;" glyph-name="star-fill" d="M426.499 832.593c32.31 75.028 138.688 75.028 171 0l73.821-171.422c6.74-15.648 21.49-26.363 38.451-27.937l185.847-17.237c81.338-7.544 114.213-108.716 52.838-162.63l-140.218-123.183c-12.8-11.241-18.432-28.584-14.685-45.2l41.034-182.077c17.962-79.69-68.101-142.22-138.342-100.51l-160.484 95.293c-14.648 8.699-32.88 8.699-47.528 0l-160.482-95.293c-70.24-41.709-156.302 20.82-138.341 100.51l41.036 182.077c3.746 16.617-1.887 33.96-14.687 45.2l-140.22 123.183c-61.371 53.914-28.499 155.086 52.842 162.63l185.845 17.237c16.964 1.573 31.713 12.289 38.451 27.937l73.822 171.422z" />
<glyph unicode="&#xe929;" glyph-name="telegram" d="M937.95 767.531c6.652 42.959-34.193 76.866-72.393 60.096l-760.767-334.021c-27.391-12.023-25.388-53.513 3.021-62.562l156.89-49.958c29.943-9.536 62.367-4.608 88.514 13.457l353.716 244.376c10.667 7.369 22.293-7.797 13.18-17.193l-254.613-262.507c-24.695-25.463-19.793-68.612 9.916-87.245l285.065-178.765c31.974-20.049 73.105 0.094 79.087 38.729l98.385 635.593z" />
<glyph unicode="&#xe92a;" glyph-name="trash" d="M780.124 798.316h161.684c29.768 0 53.898-24.13 53.898-53.895s-24.131-53.895-53.898-53.895h-53.893v-592.842c0-89.298-72.387-161.684-161.684-161.684h-431.157c-89.296 0-161.684 72.387-161.684 161.684v592.842h-53.895c-29.765 0-53.895 24.13-53.895 53.895s24.13 53.895 53.895 53.895h161.684v53.895c0 59.53 48.259 107.789 107.789 107.789h323.369c59.53 0 107.786-48.259 107.786-107.789v-53.895zM672.338 852.211h-323.369v-53.895h323.369v53.895zM780.124 690.526h-538.945v-592.842c0-29.768 24.13-53.893 53.895-53.893h431.157c29.768 0 53.893 24.125 53.893 53.893v592.842zM348.968 582.737h107.789v-431.159h-107.789v431.159zM564.547 582.737h107.791v-431.159h-107.791v431.159z" />
<glyph unicode="&#xe92b;" glyph-name="up" d="M905.097 185.938l100.565 100.566-502.83 502.833-502.832-502.831 100.566-100.566 402.264 402.264 402.266-402.266z" />
<glyph unicode="&#xe92c;" glyph-name="user" d="M521.076 504.889c-125.676 0-227.556 101.88-227.556 227.556s101.88 227.555 227.556 227.555c125.677 0 227.555-101.88 227.555-227.555s-101.878-227.556-227.555-227.556zM521.076 618.666c62.838 0 113.778 50.94 113.778 113.778s-50.94 113.778-113.778 113.778c-62.838 0-113.778-50.94-113.778-113.778s50.94-113.778 113.778-113.778zM748.631 334.223c31.421 0 56.888-25.472 56.888-56.888v-341.335h113.777v341.335c0 94.254-76.406 170.665-170.665 170.665h-455.111c-94.257 0-170.666-76.411-170.666-170.665v-341.335h113.778v341.335c0 31.416 25.47 56.888 56.889 56.888h455.111z" />
<glyph unicode="&#xe92d;" glyph-name="viber" d="M924.446 494.123c0-260.877-91.9-380.54-398.225-380.54-29.261 0-56.567 1.092-82.022 3.294l-70.824-83.187c-21.013-24.678-61.58-9.911-61.58 22.417v87.838c-137.251 50.385-183.795 164.523-183.795 350.178 0 260.879 91.898 380.544 398.221 380.544 306.325 0 398.225-119.665 398.225-380.544zM461.12 176.879c20.305-1.613 41.984-2.411 65.101-2.411 259.2 0 336.96 100.518 336.96 319.654 0 219.138-77.76 319.657-336.96 319.657-259.197 0-336.956-100.519-336.956-319.657 0-154.893 38.849-250.522 153.162-293.282v-130.125c0-11.345 14.234-16.525 21.607-7.863l97.086 114.027zM535.398 732.445c-8.614 0-15.599-6.573-15.599-14.681s6.985-14.681 15.599-14.681c103.377 0 187.183-78.875 187.183-176.17 0-8.111 6.985-14.682 15.599-14.682s15.599 6.571 15.599 14.682c0 113.512-97.775 205.533-218.381 205.533zM335.723 684.548c8.842 4.277 24.415 6.445 33.341-1.381 11.157-9.783 28.352-26.932 40.166-41.895s28.351-37.752 30.715-42.816c2.364-5.064 4.988-23.020-6.827-33.839-9.449-8.655-21.788-16.344-26.776-19.106-4.638-3.837-12.233-15.1-5.513-29.466 8.401-17.954 26.516-53.175 57.757-79.415 31.241-26.244 64.316-40.055 85.056-44.429 1.318 0 3.012-0.294 4.975-0.64 7.027-1.229 17.502-3.063 26.53 5.935 9.237 9.207 17.677 18.876 20.736 22.558 4.813 4.911 18.799 13.261 36.228 7.369 21.79-7.369 46.733-23.479 58.018-31.078 9.033-6.076 29.141-20.489 38.067-26.931 5.427-3.913 14.49-15.561 7.351-30.848-8.926-19.106-46.993-61.231-81.122-61.231-12.599 0-134.413 32.457-242.046 124.075-68.753 58.522-127.937 160.063-138.088 194.285-3.85 8.134-8.401 28.176 4.201 43.277s26.778 30.846 57.23 45.578zM535.398 614.996c-8.614 0-15.599-6.573-15.599-14.681s6.985-14.681 15.599-14.681c34.458 0 62.396-26.292 62.396-58.723 0-8.111 6.98-14.682 15.595-14.682 8.619 0 15.599 6.571 15.599 14.682 0 48.647-41.899 88.084-93.589 88.084zM519.799 659.040c0 8.108 6.985 14.681 15.599 14.681 86.148 0 155.985-65.729 155.985-146.808 0-8.111-6.985-14.682-15.599-14.682s-15.599 6.571-15.599 14.682c0 64.863-55.868 117.446-124.787 117.446-8.614 0-15.599 6.573-15.599 14.681z" />
<glyph unicode="&#xe92e;" glyph-name="vk" d="M849.704 404.139c-16.555 20.907-11.816 30.208 0 48.896 0.216 0.213 136.875 189.056 150.955 253.099l0.085 0.043c6.997 23.339 0 40.491-33.832 40.491h-111.957c-28.501 0-41.643-14.72-48.686-31.189 0 0-57.003-136.448-137.643-224.896-26.027-25.557-38.059-33.749-52.264-33.749-6.997 0-17.88 8.192-17.88 31.531v217.813c0 27.989-7.976 40.491-31.571 40.491h-176.043c-17.877 0-28.501-13.056-28.501-25.216 0-26.539 40.32-32.64 44.501-107.307v-162.005c0-35.499-6.443-42.027-20.736-42.027-38.059 0-130.432 137.003-185.173 293.803-11.051 30.421-21.845 42.709-50.56 42.709h-112c-31.957 0-38.4-14.72-38.4-31.189 0-29.099 38.059-173.781 176.981-364.925 92.587-130.475 222.976-201.176 341.589-201.176 71.294 0 79.998 15.701 79.998 42.706 0 124.672-6.44 136.454 29.269 136.454 16.555 0 45.056-8.198 111.616-71.128 76.078-74.627 88.576-108.032 131.157-108.032h111.957c31.915 0 48.088 15.701 38.787 46.677-21.294 65.149-165.166 199.168-171.651 208.128v0z" />
<glyph unicode="&#xe92f;" glyph-name="wallet" d="M669.916 953.756c22.262 12.853 50.729 5.225 63.58-17.037l94.054-162.908h103.373c51.415 0 93.092-41.677 93.092-93.090v-651.63c0-51.415-41.677-93.092-93.092-93.092h-837.811c-51.412 0-93.090 41.677-93.090 93.092v651.63c0 51.414 41.678 93.090 93.090 93.090h265.129l311.674 179.945zM719.862 774.158l-43.709 75.707-130.801-75.518 174.51-0.189zM930.924 192h-157.087c-91.023 0-168.73 70.82-168.73 162.908 0 92.083 77.706 162.906 168.73 162.906h157.087v162.908h-837.811v-651.63h837.811v162.908zM930.924 424.724h-157.087c-43.94 0-75.638-33.372-75.638-69.816 0-36.449 31.698-69.821 75.638-69.821h157.087v139.638z" />
<glyph unicode="&#xe930;" glyph-name="whatsapp" d="M512 21.333c-73.783 0-143.196 18.731-203.738 51.695l-222.929-51.695 55.42 216.23c-35.276 62.097-55.42 133.914-55.42 210.436 0 235.642 191.025 426.667 426.667 426.667 235.639 0 426.667-191.025 426.667-426.667 0-235.639-191.027-426.667-426.667-426.667zM512 86.976c199.39 0 361.024 161.634 361.024 361.024s-161.634 361.026-361.024 361.026c-199.389 0-361.026-161.637-361.026-361.026 0-76.983 24.096-148.343 65.158-206.942l-32.337-121.263 123.403 30.852c58.192-40.158 128.753-63.671 204.802-63.671zM405.334 646.095c-10.144 20.376-25.707 18.572-41.428 18.572-28.096 0-71.906-33.655-71.906-96.288 0-51.331 22.619-107.523 98.839-191.576 73.557-81.122 170.21-123.085 250.445-121.655 80.239 1.425 96.747 70.473 96.747 93.794 0 10.334-6.413 15.488-10.829 16.892-27.345 13.12-77.773 37.572-89.25 42.167-11.473 4.595-17.463-1.621-21.188-5.001-10.406-9.916-31.036-39.142-38.097-45.713-7.061-6.575-17.591-3.247-21.973-0.764-16.124 6.473-59.844 25.916-94.69 59.699-43.098 41.779-45.627 56.149-53.747 68.945-6.496 10.236-1.729 16.516 0.649 19.26 9.286 10.718 22.109 27.255 27.856 35.478 5.751 8.22 1.186 20.701-1.553 28.474-11.779 33.431-21.759 61.416-29.874 77.716z" />
<glyph unicode="&#xe931;" glyph-name="youtube" d="M912.655 784.474c-80.133 21.926-400.657 21.926-400.657 21.926s-320.526 0-400.657-21.082c-43.018-11.806-78.444-47.225-90.253-91.076-21.087-80.113-21.087-246.242-21.087-246.242s0-166.973 21.087-246.241c11.809-43.853 46.392-78.428 90.253-90.235 80.975-21.924 400.657-21.924 400.657-21.924s320.524 0 400.657 21.084c43.863 11.807 78.444 46.377 90.255 90.23 21.084 80.113 21.084 246.243 21.084 246.243s0.845 166.972-21.084 247.085c-11.812 43.851-46.392 78.426-90.255 90.233zM676.541 447.995l-266.542-153.48v306.959l266.542-153.48z" />
</font>
</defs>
</svg>
