<svg class="BaseIcon-sc-1biivz9-0 dMyMEE icon icon-check" viewBox="0 0 24 24" width="20" height="20" fill="#232324" version="1.1" xmlns="http://www.w3.org/2000/svg" xmlns:xlink="http://www.w3.org/1999/xlink"><path xmlns="http://www.w3.org/2000/svg" d="M19 0H5a5.006 5.006 0 00-5 5v14a5.006 5.006 0 005 5h14a5.006 5.006 0 005-5V5a5.006 5.006 0 00-5-5zm3 5h-7V2h4a3 3 0 013 3zM11 2h2v5a1 1 0 01-2 0zM5 2h4v3H2a3 3 0 013-3zm14 20H5a3 3 0 01-3-3V7h7a3 3 0 006 0h7v12a3 3 0 01-3 3zm1-3a1 1 0 01-1 1h-3a1 1 0 010-2h3a1 1 0 011 1z"></path></svg>